<svg width="500" height="500" viewBox="0 0 500 500" fill="none" xmlns="http://www.w3.org/2000/svg">
<g clip-path="url(#clip0_2600_11193)">
<rect width="500" height="500" fill="white"/>
<path d="M177.083 281.25L229.167 343.75L302.083 250L395.833 375H104.167L177.083 281.25ZM437.5 395.833V104.167C437.5 81.0417 418.75 62.5 395.833 62.5H104.167C93.116 62.5 82.5179 66.8899 74.7039 74.7039C66.8899 82.5179 62.5 93.116 62.5 104.167V395.833C62.5 406.884 66.8899 417.482 74.7039 425.296C82.5179 433.11 93.116 437.5 104.167 437.5H395.833C406.884 437.5 417.482 433.11 425.296 425.296C433.11 417.482 437.5 406.884 437.5 395.833Z" fill="#1E1E1E"/>
</g>
<defs>
<clipPath id="clip0_2600_11193">
<rect width="500" height="500" fill="white"/>
</clipPath>
</defs>
</svg>
