<svg width="246" height="185" viewBox="0 0 246 185" fill="none" xmlns="http://www.w3.org/2000/svg">
<ellipse opacity="0.68" cx="93.99" cy="38.8716" rx="33.99" ry="33.8717" fill="#9155FD"/>
<path opacity="0.68" d="M93.9904 71.6577C75.7971 71.6577 61.0898 56.8931 61.0898 38.8716C61.0898 20.7416 75.906 6.08557 93.9904 6.08557C112.184 6.08557 126.891 20.8502 126.891 38.8716C126.891 57.0017 112.075 71.6577 93.9904 71.6577Z" fill="url(#paint0_linear_9_2549)"/>
<path d="M100.666 36.165C100.25 35.7268 99.6265 35.7268 99.2106 36.165L95.6754 39.8899V24.9902C95.6754 24.3329 95.2595 23.8947 94.6357 23.8947C94.0118 23.8947 93.5959 24.3329 93.5959 24.9902V54.3514L87.8773 48.3258C87.4614 47.8876 86.8376 47.8876 86.4217 48.3258C86.0058 48.7641 86.0058 49.4214 86.4217 49.8596L93.5959 57.419V95.6544C93.5959 96.3117 94.0118 96.7499 94.6357 96.7499C95.2595 96.7499 95.6754 96.3117 95.6754 95.6544V42.9575L100.666 37.6988C101.082 37.2606 101.082 36.6032 100.666 36.165Z" fill="#9155FD"/>
<rect x="83.1362" y="89.3157" width="23.7895" height="35.6842" fill="#C6C2D6"/>
<ellipse opacity="0.68" cx="157.808" cy="74.7584" rx="19.8275" ry="19.7585" fill="#9155FD"/>
<path opacity="0.68" d="M157.808 93.8837C147.195 93.8837 138.616 85.2711 138.616 74.7585C138.616 64.1827 147.259 55.6333 157.808 55.6333C168.421 55.6333 177 64.246 177 74.7585C177 85.3344 168.357 93.8837 157.808 93.8837Z" fill="url(#paint1_linear_9_2549)"/>
<path d="M161.702 73.1795C161.46 72.9239 161.096 72.9239 160.853 73.1795L158.791 75.3524V66.6609C158.791 66.2775 158.549 66.0218 158.185 66.0218C157.821 66.0218 157.578 66.2775 157.578 66.6609V83.7883L154.242 80.2733C154 80.0177 153.636 80.0177 153.393 80.2733C153.151 80.529 153.151 80.9124 153.393 81.1681L157.578 85.5777V107.882C157.578 108.265 157.821 108.521 158.185 108.521C158.549 108.521 158.791 108.265 158.791 107.882V77.1418L161.702 74.0742C161.945 73.8186 161.945 73.4352 161.702 73.1795Z" fill="#9155FD"/>
<rect x="151.476" y="104.184" width="13.8772" height="20.8158" fill="#C6C2D6"/>
<defs>
<linearGradient id="paint0_linear_9_2549" x1="126.891" y1="38.8716" x2="61.0898" y2="38.8716" gradientUnits="userSpaceOnUse">
<stop stop-color="#9155FD"/>
<stop offset="1" stop-color="#C6A7FE"/>
</linearGradient>
<linearGradient id="paint1_linear_9_2549" x1="177" y1="74.7585" x2="138.616" y2="74.7585" gradientUnits="userSpaceOnUse">
<stop stop-color="#9155FD"/>
<stop offset="1" stop-color="#C6A7FE"/>
</linearGradient>
</defs>
</svg>
