<svg width="151" height="251" viewBox="0 0 151 251" fill="none" xmlns="http://www.w3.org/2000/svg">
<path opacity="0.863673" d="M103.623 82.4081C98.397 68.8671 93.4879 60.7737 95.3882 44.5868C97.2885 28.3999 100.772 10.3453 84.3033 10.3453C67.8343 10.3453 71.3182 28.2443 73.2184 44.5868C75.1187 60.7737 70.2097 68.8671 64.9839 82.4081C59.7582 95.949 51.5237 132.525 84.3033 132.525C116.925 132.525 108.848 95.949 103.623 82.4081Z" fill="url(#paint0_linear_9_4888)"/>
<path d="M90.4414 71.6406C89.9316 71.1819 89.082 71.1819 88.5722 71.6406L84.3241 75.4631V30.6634C84.3241 30.0518 83.8143 29.4402 82.9646 29.4402C82.2849 29.4402 81.6052 29.8989 81.6052 30.6634V112.618L74.6382 106.349C74.1285 105.89 73.2788 105.89 72.7691 106.349C72.2593 106.808 72.2593 107.572 72.7691 108.031L81.6052 115.982V160.628C81.6052 161.24 82.115 161.852 82.9646 161.852C83.6444 161.852 84.3241 161.393 84.3241 160.628V78.9798L90.4414 73.4754C90.9512 72.8638 90.9512 72.0993 90.4414 71.6406Z" fill="#9155FD"/>
<path d="M95.582 190.345H70.9825L67.3594 146.767H99.2052L95.582 190.345Z" fill="#C6C2D6"/>
<path opacity="0.863673" d="M147.525 118.387C144.041 109.36 140.769 103.964 142.036 93.173C143.302 82.3817 145.625 70.3453 134.646 70.3453C123.666 70.3453 125.989 82.278 127.256 93.173C128.523 103.964 125.25 109.36 121.766 118.387C118.282 127.414 112.793 151.799 134.646 151.799C156.393 151.799 151.009 127.414 147.525 118.387Z" fill="url(#paint1_linear_9_4888)"/>
<path d="M138.738 111.209C138.398 110.903 137.831 110.903 137.492 111.209L134.659 113.757V83.8908C134.659 83.4831 134.32 83.0754 133.753 83.0754C133.3 83.0754 132.847 83.3812 132.847 83.8908V138.527L128.202 134.348C127.862 134.042 127.296 134.042 126.956 134.348C126.616 134.654 126.616 135.163 126.956 135.469L132.847 140.77V170.534C132.847 170.942 133.187 171.35 133.753 171.35C134.206 171.35 134.659 171.044 134.659 170.534V116.102L138.738 112.432C139.078 112.024 139.078 111.515 138.738 111.209Z" fill="#9155FD"/>
<path d="M142.165 190.345H125.765L123.35 161.293H144.58L142.165 190.345Z" fill="#C6C2D6"/>
<defs>
<linearGradient id="paint0_linear_9_4888" x1="108.489" y1="71.4352" x2="60.0688" y2="71.4352" gradientUnits="userSpaceOnUse">
<stop stop-color="#9155FD"/>
<stop offset="1" stop-color="#C6A7FE"/>
</linearGradient>
<linearGradient id="paint1_linear_9_4888" x1="150.77" y1="111.072" x2="118.489" y2="111.072" gradientUnits="userSpaceOnUse">
<stop stop-color="#9155FD"/>
<stop offset="1" stop-color="#C6A7FE"/>
</linearGradient>
</defs>
</svg>
