<svg width="168" height="167" viewBox="0 0 168 167" fill="none" xmlns="http://www.w3.org/2000/svg">
<path d="M150.667 83.5001C150.667 101.181 143.643 118.138 131.141 130.641C118.638 143.143 101.681 150.167 84.0001 150.167C66.319 150.167 49.3621 143.143 36.8596 130.641C24.3572 118.138 17.3334 101.181 17.3334 83.5001C17.3334 65.819 24.3572 48.8621 36.8596 36.3596C49.3621 23.8572 66.319 16.8334 84.0001 16.8334C90.3334 16.8334 96.5001 17.7501 102.333 19.4167L115.417 6.33341C105.75 2.33341 95.1667 0.166748 84.0001 0.166748C73.0566 0.166748 62.2203 2.32223 52.1098 6.51012C41.9993 10.698 32.8127 16.8363 25.0745 24.5745C9.44648 40.2025 0.666748 61.3987 0.666748 83.5001C0.666748 105.601 9.44648 126.798 25.0745 142.426C32.8127 150.164 41.9993 156.302 52.1098 160.49C62.2203 164.678 73.0566 166.833 84.0001 166.833C106.101 166.833 127.298 158.054 142.926 142.426C158.554 126.798 167.333 105.601 167.333 83.5001H150.667ZM49.9167 67.5001L38.1667 79.3334L75.6667 116.833L159 33.5001L147.25 21.6667L75.6667 93.2501L49.9167 67.5001Z" fill="#24FF00"/>
</svg>
